<svg width="128" height="128" xmlns="http://www.w3.org/2000/svg">

	<g>
		<title>Layer 1</title>
		<path fill-rule="evenodd" fill="#d60d0d"
			  d="m56.65888,28.8998c-0.567,0.136 -1.419,0.334 -1.892,0.441c-0.735,0.165 -1.705,0.615 -3.07,1.422c-0.359,0.212 -1.833,1.62 -1.833,1.751c0,0.047 -0.079,0.179 -0.175,0.293c-1.826,2.167 -2.395,3.457 -2.52,5.713l-0.096,1.721l0.556,0.559l0.555,0.559l6.044,0.003c7.044,0.003 8.88,0.284 7.987,1.224c-0.123,0.13 -0.372,0.518 -0.553,0.863c-0.647,1.228 -0.067,1.179 -13.792,1.179c-12.769,0 -12.444,-0.015 -15.587,0.702c-1.638,0.374 -4.785,2.516 -4.785,3.257c0,0.093 -0.077,0.17 -0.172,0.17c-0.095,0 -0.172,0.097 -0.173,0.215c0,0.118 -0.213,0.447 -0.473,0.731c-0.439,0.48 -0.992,1.501 -1.651,3.047c-0.149,0.352 -0.366,1.293 -0.482,2.093l-0.21,1.453l0.471,0.618c0.918,1.203 -0.03,1.133 15.475,1.133l14.007,0l0.436,0.645c1.352,1.999 3.224,1.835 -22.239,1.94c-15.951,0.066 -22.099,0.145 -22.537,0.29c-0.331,0.109 -1.049,0.294 -1.594,0.411c-0.545,0.116 -1.077,0.315 -1.182,0.441c-0.105,0.127 -0.262,0.23 -0.349,0.23c-0.417,0 -3.069,2.242 -3.069,2.594c0,0.087 -0.062,0.159 -0.138,0.159c-0.39,0 -2.615,3.724 -2.615,4.376c0,0.125 -0.116,0.505 -0.258,0.845c-0.597,1.43 -0.223,3.012 0.885,3.743c0.476,0.314 1.336,0.324 27.589,0.328l27.096,0.003l0.473,0.858c1.207,2.188 2.16,2.062 -15.546,2.062c-16.128,0 -15.711,-0.022 -16.555,0.883c-0.55,0.59 0.004,3.937 0.863,5.22c0.125,0.186 0.228,0.443 0.228,0.571c0,0.224 1.329,1.955 1.591,2.071c0.071,0.032 0.129,0.133 0.129,0.224c0,0.091 0.187,0.336 0.416,0.545c2.229,2.031 2.423,2.139 4.831,2.694c0.757,0.174 1.764,0.415 2.237,0.535c0.652,0.165 4.522,0.233 16,0.281c14.845,0.062 15.16,0.071 16.172,0.424c1.056,0.369 2.341,0.965 2.495,1.157c0.047,0.059 0.43,0.331 0.851,0.604c0.42,0.273 0.846,0.561 0.946,0.64c0.742,0.585 3.147,2.077 4.138,2.566c0.662,0.326 1.243,0.633 1.29,0.681c0.222,0.224 2.049,0.971 3.355,1.371c0.379,0.116 1.269,0.429 1.979,0.696c4.372,1.642 15.865,1.637 20.129,-0.01c0.52,-0.201 1.178,-0.426 1.462,-0.5c2.609,-0.683 9.209,-4.354 9.945,-5.533c0.111,-0.178 0.263,-0.324 0.337,-0.324c0.214,0 3.508,-3.266 3.75,-3.719c0.121,-0.226 0.282,-0.41 0.357,-0.41c0.157,0 1.181,-0.971 1.181,-1.12c0,-0.055 0.265,-0.387 0.588,-0.737c0.851,-0.923 1.194,-1.391 1.726,-2.358c0.26,-0.474 0.581,-0.983 0.714,-1.132c0.132,-0.15 0.241,-0.353 0.241,-0.452c0,-0.1 0.116,-0.277 0.258,-0.395c0.142,-0.118 0.258,-0.326 0.258,-0.462c0,-0.284 0.809,-2.076 1.111,-2.463c0.328,-0.419 1.642,-3.803 1.642,-4.229c0,-0.146 0.182,-0.667 0.406,-1.158c1.533,-3.369 1.66,-15.185 0.194,-18.136c-0.13,-0.262 -0.331,-0.864 -0.447,-1.337c-0.116,-0.473 -0.398,-1.402 -0.628,-2.064c-0.229,-0.663 -0.457,-1.379 -0.507,-1.592c-0.05,-0.213 -0.145,-0.387 -0.212,-0.387c-0.067,0 -0.296,-0.329 -0.509,-0.731c-1.268,-2.393 -2.644,-4.578 -3.888,-6.175c-0.568,-0.729 -1.227,-1.649 -1.463,-2.044c-0.478,-0.797 -2.681,-3.104 -4.106,-4.298c-0.507,-0.425 -1.022,-0.868 -1.144,-0.984c-0.339,-0.321 -3.409,-2.284 -3.573,-2.284c-0.205,0 -2.05,-0.869 -2.36,-1.111c-0.291,-0.228 -2.142,-0.991 -3.183,-1.311c-0.378,-0.117 -1.152,-0.426 -1.72,-0.687c-3.016,-1.386 -2.634,-1.366 -25.278,-1.352c-16.587,0.011 -19.965,0.053 -20.83,0.26m46.565,25.628c3.143,0.363 4.703,0.787 5.768,1.569c0.301,0.221 0.63,0.402 0.731,0.402c0.101,0 0.184,0.072 0.184,0.16c0,0.089 0.151,0.209 0.336,0.268c0.464,0.147 3.055,2.76 3.393,3.421c0.151,0.296 0.496,0.82 0.767,1.165c0.271,0.345 0.493,0.672 0.493,0.728c0,0.055 0.299,0.741 0.664,1.523c0.66,1.416 0.76,1.691 1.326,3.66c0.41,1.424 0.404,4.659 -0.011,6.043c-0.599,1.995 -0.759,2.432 -1.365,3.725c-0.338,0.722 -0.614,1.387 -0.614,1.478c0,0.091 -0.06,0.192 -0.134,0.223c-0.073,0.032 -0.496,0.611 -0.938,1.288c-0.443,0.676 -1.002,1.443 -1.243,1.702c-0.241,0.26 -0.438,0.539 -0.438,0.619c0,0.081 -0.081,0.147 -0.18,0.147c-0.099,0 -0.533,0.349 -0.965,0.774c-0.432,0.426 -0.989,0.884 -1.239,1.018c-1.691,0.91 -3.929,1.819 -4.494,1.827c-0.239,0.004 -0.898,0.119 -1.466,0.256c-1.358,0.328 -4.36,0.321 -6.43,-0.014c-1.682,-0.272 -2.351,-0.48 -3.895,-1.214c-0.474,-0.226 -0.942,-0.41 -1.039,-0.41c-0.098,0 -0.445,-0.252 -0.772,-0.56c-0.327,-0.309 -0.866,-0.752 -1.197,-0.985c-0.921,-0.649 -3.097,-3.163 -3.097,-3.578c0,-0.099 -0.29,-0.478 -0.644,-0.841c-1.034,-1.06 -1.52,-2.322 -2.262,-5.877c-0.379,-1.819 -0.192,-5.013 0.422,-7.185c0.136,-0.481 0.247,-1.072 0.247,-1.312c0,-0.24 0.117,-0.533 0.259,-0.651c0.141,-0.118 0.258,-0.31 0.258,-0.426c0,-0.117 0.193,-0.421 0.43,-0.676c0.236,-0.256 0.43,-0.538 0.43,-0.628c0,-0.089 0.07,-0.163 0.155,-0.163c0.086,0 0.407,-0.445 0.713,-0.989c0.307,-0.544 0.929,-1.376 1.382,-1.849c0.453,-0.474 0.964,-1.017 1.136,-1.208c0.405,-0.45 3.06,-2.212 3.84,-2.548c1.035,-0.446 4.466,-1.032 6.564,-1.121c0.346,-0.015 1.662,0.093 2.925,0.239"
			  id="svg_5"/>
	</g>
</svg>
