<?xml version="1.0" standalone="no"?>
<!DOCTYPE svg PUBLIC "-//W3C//DTD SVG 20010904//EN"
    "http://www.w3.org/TR/2001/REC-SVG-20010904/DTD/svg10.dtd">
<svg version="1.0" xmlns="http://www.w3.org/2000/svg"
     width="700.000000pt" height="700.000000pt" viewBox="0 0 700.000000 700.000000"
     preserveAspectRatio="xMidYMid meet">
    <metadata>
        Created by potrace 1.14, written by Peter Selinger 2001-2017
    </metadata>
    <g transform="translate(0.000000,700.000000) scale(0.100000,-0.100000)"
       fill="#000000" stroke="none">
        <path d="M4360 6454 c-25 -7 -83 -23 -130 -37 -113 -31 -218 -74 -244 -99 -11
-11 -36 -27 -54 -35 -70 -30 -217 -204 -240 -284 -6 -19 -11 -28 -11 -21 -1 8
-13 0 -27 -17 -32 -38 -41 -39 -57 -3 -6 15 -14 29 -18 32 -13 10 -30 51 -25
59 7 10 -18 46 -33 47 -6 1 -14 2 -19 3 -4 0 -14 16 -21 33 -8 18 -35 59 -59
90 -51 65 -76 73 -202 66 -79 -4 -101 -17 -82 -48 17 -28 5 -53 -24 -46 -12 3
-26 2 -29 -4 -3 -5 -2 -10 2 -10 5 0 9 -9 10 -20 1 -13 -2 -18 -9 -14 -7 5 -9
1 -5 -9 3 -9 2 -19 -3 -22 -25 -16 13 -175 42 -175 5 0 7 -4 4 -9 -3 -5 0 -14
8 -20 11 -9 14 0 19 46 4 35 12 60 21 65 8 5 21 14 28 22 26 26 58 36 103 34
25 -2 45 -6 45 -10 0 -5 11 -8 24 -8 37 0 76 -38 107 -104 33 -71 145 -249
160 -255 6 -2 13 6 16 18 3 12 10 21 15 21 6 0 8 7 4 15 -3 8 -1 15 4 15 8 0
20 25 20 43 0 4 13 21 30 39 29 30 35 42 30 63 -1 5 2 7 6 3 6 -7 39 29 38 42
0 14 107 93 193 141 115 63 127 69 167 73 17 1 46 12 65 24 19 11 39 18 43 15
5 -3 12 3 14 13 5 17 16 19 114 19 59 0 106 -3 104 -7 -3 -4 8 -10 23 -14 15
-4 43 -16 61 -26 18 -11 50 -22 70 -25 56 -7 246 -102 270 -135 8 -10 29 -35
48 -56 143 -152 253 -406 257 -591 2 -65 -3 -88 -30 -156 -30 -75 -52 -133
-109 -285 -31 -82 -27 -95 28 -86 52 8 64 16 47 28 -10 7 -7 8 9 5 16 -4 22
-2 19 6 -3 8 11 12 42 12 51 1 148 44 143 64 -1 7 2 10 7 6 6 -3 27 3 48 13
36 19 101 33 151 34 12 0 22 3 22 7 0 3 64 6 142 5 88 -1 135 2 123 8 -14 6
-12 7 10 2 17 -3 37 -7 46 -9 9 -2 40 -6 70 -10 72 -8 91 -14 83 -27 -4 -7 -2
-8 4 -4 7 4 20 2 29 -4 17 -11 17 -11 1 -6 -35 11 -17 -4 40 -32 140 -70 257
-159 308 -234 16 -24 43 -61 61 -83 17 -23 43 -64 56 -92 13 -29 28 -58 34
-65 5 -7 16 -39 23 -72 8 -32 20 -60 28 -63 11 -5 11 -7 0 -14 -8 -6 -9 -9 -2
-9 9 0 9 -11 3 -37 -4 -21 -7 -101 -6 -178 2 -95 -1 -143 -8 -150 -17 -15 -56
-125 -48 -137 3 -6 2 -8 -4 -5 -5 3 -21 -17 -35 -46 -15 -29 -42 -74 -62 -102
-20 -27 -55 -79 -80 -115 -40 -60 -78 -97 -175 -173 -20 -15 -43 -33 -51 -40
-64 -52 -94 -69 -125 -71 -25 -2 -46 -13 -70 -36 -19 -19 -35 -36 -35 -39 0
-8 72 -56 85 -57 6 -1 16 -2 23 -3 7 0 11 -5 8 -10 -3 -5 6 -12 22 -16 15 -3
41 -17 58 -30 21 -16 35 -20 46 -14 11 6 17 4 20 -9 3 -10 24 -28 46 -39 23
-11 39 -22 36 -25 -2 -3 34 -56 81 -119 84 -111 150 -230 175 -316 7 -23 16
-40 20 -38 4 3 10 -5 14 -18 5 -18 8 -19 15 -7 7 10 10 -1 9 -38 0 -29 -4 -52
-9 -52 -5 0 -9 16 -9 36 0 21 -4 33 -10 29 -6 -4 -10 -77 -9 -193 2 -197 -4
-257 -26 -266 -8 -3 -19 -15 -26 -28 -12 -22 -11 -22 6 -8 10 8 16 10 12 4 -3
-6 -8 -23 -11 -38 -3 -16 -14 -35 -26 -43 -11 -8 -20 -18 -20 -23 0 -5 -14
-31 -31 -58 -16 -27 -31 -58 -32 -70 0 -11 -4 -19 -9 -16 -7 4 -30 -29 -25
-37 1 -2 0 -3 -2 -2 -10 6 -30 -20 -24 -31 3 -6 3 -8 -2 -4 -11 11 -36 -12
-28 -25 4 -6 1 -7 -6 -3 -13 8 -43 -23 -35 -36 3 -4 -3 -5 -12 -1 -13 5 -16 3
-11 -10 4 -11 2 -14 -7 -11 -7 3 -19 -2 -26 -10 -7 -9 -16 -13 -21 -10 -5 3
-9 0 -9 -5 0 -6 -5 -11 -10 -11 -6 0 -21 -10 -33 -21 -12 -12 -15 -18 -7 -14
10 5 12 5 5 -2 -5 -6 -28 -16 -50 -23 -22 -7 -67 -25 -100 -40 -100 -44 -118
-50 -170 -54 -69 -5 -67 -5 -60 -16 3 -6 1 -10 -4 -10 -6 0 -11 6 -11 13 0 9
-2 9 -8 0 -8 -13 -306 -22 -318 -10 -7 7 19 10 61 8 l20 -1 -20 9 c-11 5 -35
10 -52 10 -30 1 -84 21 -155 57 -34 18 -49 18 -42 -1 4 -10 14 -14 28 -10 11
2 15 2 8 -1 -9 -4 -1 -17 25 -43 35 -33 36 -36 15 -39 -12 -2 -42 11 -69 30
-27 18 -50 32 -53 31 -3 -1 -11 3 -17 9 -7 6 -13 6 -13 1 0 -15 135 -109 170
-118 3 -1 22 -9 42 -18 21 -10 49 -17 63 -17 14 0 25 -5 25 -11 0 -6 7 -8 16
-5 8 3 13 2 10 -3 -3 -5 1 -12 10 -15 9 -4 13 -2 8 5 -4 7 0 9 14 5 11 -4 35
-9 53 -11 55 -8 423 -7 443 1 12 5 17 4 13 -2 -4 -6 6 -9 24 -6 16 2 29 9 29
16 0 7 3 6 8 -2 7 -10 14 -8 33 7 13 10 43 25 67 31 23 7 42 16 42 20 0 4 18
10 40 13 54 7 200 116 200 149 0 5 5 6 10 3 6 -3 10 -1 10 4 0 6 27 39 60 73
33 35 58 69 55 76 -3 7 0 10 5 7 12 -8 84 101 75 115 -3 6 -1 9 6 8 18 -4 70
92 63 117 -4 15 -3 17 4 6 8 -10 14 0 25 40 38 132 51 197 49 238 -2 23 0 41
5 38 5 -3 9 3 9 13 0 10 -3 17 -7 15 -3 -3 -5 12 -5 33 1 20 -1 49 -5 64 -4
15 -4 30 1 33 5 3 0 36 -10 73 -10 37 -21 85 -25 107 -4 21 -15 45 -26 53 -10
7 -19 22 -19 33 0 11 -8 34 -17 52 -9 18 -16 35 -15 40 5 18 -146 223 -201
273 -69 62 -142 108 -157 99 -6 -4 -9 -1 -8 5 4 14 -101 70 -144 77 -81 12
-60 36 120 137 68 38 139 83 160 100 69 58 192 186 192 201 0 8 5 15 10 15 6
0 16 12 22 28 7 15 23 38 36 51 12 14 20 31 18 38 -3 8 -2 12 3 9 5 -3 12 1
15 10 9 24 7 31 -4 14 -7 -10 -10 -11 -10 -2 0 7 6 15 14 18 8 3 20 28 26 56
7 29 16 45 20 38 5 -8 9 -7 14 5 9 24 8 27 -6 18 -8 -4 -6 3 3 18 9 14 26 56
38 95 18 61 20 89 17 239 -3 165 -7 195 -30 224 -18 23 -35 81 -24 81 6 0 4 7
-3 16 -8 9 -26 44 -40 78 -14 33 -30 60 -36 59 -6 -1 -14 4 -17 13 -3 8 -2 12
4 9 22 -14 8 16 -15 31 -14 9 -22 20 -20 25 3 4 -6 16 -20 25 -14 9 -25 22
-25 30 0 19 -131 146 -195 188 -55 37 -105 60 -105 49 0 -4 -6 1 -12 10 -19
24 -241 107 -250 93 -6 -8 -8 -7 -8 2 0 6 -5 12 -11 12 -5 0 -7 -4 -4 -10 9
-15 -32 -12 -100 6 -65 17 -222 27 -230 14 -3 -5 -15 -6 -28 -3 -22 5 -22 5
-2 -11 12 -10 14 -14 5 -12 -40 11 -100 15 -100 7 0 -5 8 -12 18 -14 13 -4 12
-5 -5 -6 -12 0 -25 -5 -28 -11 -3 -6 1 -7 9 -4 31 12 15 -6 -21 -25 l-38 -20
55 5 c46 4 52 3 36 -7 -27 -16 -128 -18 -133 -2 -3 8 14 21 40 32 43 18 64 37
54 47 -2 2 -17 -1 -33 -7 -16 -7 -36 -14 -46 -15 -9 -2 -47 -19 -85 -38 -37
-18 -92 -42 -121 -52 l-54 -19 -19 24 c-12 15 -18 34 -15 50 6 39 28 123 37
146 4 11 14 40 23 65 8 25 22 65 31 90 18 48 29 210 15 210 -5 0 -7 9 -5 20 6
34 -25 141 -70 237 -75 160 -176 288 -309 393 -63 49 -84 61 -70 38 4 -7 3 -8
-5 -4 -6 4 -9 11 -7 15 7 10 -104 62 -136 64 -15 1 -25 4 -22 6 2 2 -47 17
-109 34 -126 33 -220 40 -287 21z m-316 -122 c3 -5 -1 -9 -9 -9 -8 0 -12 4 -9
9 3 4 7 8 9 8 2 0 6 -4 9 -8z m-654 -247 c17 -9 30 -18 30 -21 0 -4 -59 23
-69 32 -10 9 13 3 39 -11z m-170 -9 c0 -2 -7 -7 -16 -10 -8 -3 -12 -2 -9 4 6
10 25 14 25 6z m324 -12 c3 -8 2 -12 -4 -9 -6 3 -10 10 -10 16 0 14 7 11 14
-7z m1621 -144 l20 -25 -22 19 c-13 11 -23 24 -23 29 0 6 1 8 3 6 1 -2 11 -15
22 -29z m-1595 -27 c0 -7 -4 -13 -8 -13 -12 0 -32 23 -32 37 0 11 4 11 20 1
11 -7 20 -18 20 -25z m1689 -446 c0 -21 -1 -21 -9 -2 -12 28 -12 37 0 30 6 -3
10 -16 9 -28z m-2 -59 c-3 -7 -5 -2 -5 12 0 14 2 19 5 13 2 -7 2 -19 0 -25z
m-30 -210 c-3 -7 -5 -2 -5 12 0 14 2 19 5 13 2 -7 2 -19 0 -25z m24 -51 c-13
-13 -15 1 -4 30 7 17 8 17 11 -1 2 -10 -1 -23 -7 -29z m1113 -36 c4 -5 -3 -7
-14 -4 -23 6 -26 13 -6 13 8 0 17 -4 20 -9z m-1079 -64 c22 -12 40 -29 40 -37
0 -7 -24 -23 -53 -35 -29 -12 -49 -24 -46 -28 4 -4 3 -7 -3 -7 -19 0 -22 13
-6 28 10 11 12 17 4 20 -21 7 -10 82 13 82 6 0 29 -11 51 -23z m115 4 c0 -11
-31 -19 -49 -13 -9 3 -10 7 -3 11 16 10 52 11 52 2z m767 -47 c-3 -3 -12 -4
-19 -1 -8 3 -5 6 6 6 11 1 17 -2 13 -5z m520 -836 c-3 -8 -6 -5 -6 6 -1 11 2
17 5 13 3 -3 4 -12 1 -19z m130 0 c-3 -8 -6 -5 -6 6 -1 11 2 17 5 13 3 -3 4
-12 1 -19z m0 -70 c-3 -8 -6 -5 -6 6 -1 11 2 17 5 13 3 -3 4 -12 1 -19z m-762
-837 c-3 -5 3 -12 14 -16 30 -9 34 -34 8 -44 -24 -9 -57 11 -57 35 0 7 8 18
18 23 22 13 25 13 17 2z m150 -111 c3 -5 -1 -10 -10 -10 -9 0 -13 5 -10 10 3
6 8 10 10 10 2 0 7 -4 10 -10z m75 -6 c0 -2 -11 -3 -24 -2 -14 1 -23 5 -20 9
4 7 44 0 44 -7z m184 -259 c9 -14 14 -25 12 -25 -8 0 -36 31 -36 41 0 15 7 10
24 -16z m7 -52 c13 -16 12 -17 -3 -4 -10 7 -18 15 -18 17 0 8 8 3 21 -13z
m286 -375 c-3 -7 -5 -2 -5 12 0 14 2 19 5 13 2 -7 2 -19 0 -25z m0 -90 c-3 -7
-5 -2 -5 12 0 14 2 19 5 13 2 -7 2 -19 0 -25z m95 -121 c1 -20 -1 -39 -5 -43
-4 -4 -7 14 -7 41 0 56 8 57 12 2z m-120 -160 c-17 -17 -35 -43 -41 -57 -6
-16 -10 -19 -10 -8 -1 17 70 108 78 101 3 -2 -9 -18 -27 -36z m-62 -126 c0 -5
-9 -19 -20 -32 l-20 -24 17 32 c19 34 23 39 23 24z m-845 -591 c-3 -5 -12 -10
-18 -10 -7 0 -6 4 3 10 19 12 23 12 15 0z m-190 -23 c13 -3 9 -5 -12 -6 -32
-1 -53 -16 -32 -23 8 -3 7 -7 -2 -15 -16 -12 -119 13 -119 28 0 5 6 8 13 7 6
-2 11 2 10 9 -2 9 4 10 20 4 30 -11 89 -2 80 13 -5 8 -3 8 8 0 8 -7 23 -14 34
-17z m51 11 c3 -4 -1 -5 -10 -4 -8 1 -18 5 -22 8 -3 4 1 5 10 4 8 -1 18 -5 22
-8z m41 6 c-3 -3 -12 -4 -19 -1 -8 3 -5 6 6 6 11 1 17 -2 13 -5z"/>
        <path d="M2145 6234 c-66 -13 -132 -31 -147 -39 -14 -8 -36 -15 -47 -15 -12 0
-29 -8 -39 -18 -10 -10 -24 -16 -32 -14 -8 3 -10 0 -5 -8 5 -9 4 -11 -3 -6
-11 6 -50 -8 -62 -23 -3 -3 -21 -14 -42 -23 -20 -9 -44 -29 -55 -44 -25 -37
-133 -140 -144 -136 -5 1 -8 -2 -7 -6 5 -15 -83 -111 -96 -106 -7 2 -23 -14
-36 -38 -32 -55 -42 -81 -30 -73 5 3 2 -7 -7 -24 -10 -16 -20 -28 -24 -25 -4
2 -10 -13 -14 -33 -4 -21 -13 -50 -22 -66 -8 -16 -12 -35 -9 -43 3 -8 1 -14
-5 -14 -6 0 -6 -7 1 -19 5 -11 9 -35 9 -53 -2 -32 -2 -32 -8 7 -11 64 -24
-129 -19 -271 4 -112 7 -126 48 -229 24 -60 53 -126 66 -146 23 -37 33 -66 24
-70 -12 -5 -58 16 -99 44 -35 24 -55 30 -110 33 -46 2 -55 1 -31 -4 35 -8 35
-8 11 -21 -13 -7 -20 -8 -17 -2 8 13 -188 12 -224 -1 -14 -6 -36 -12 -50 -15
-49 -9 -105 -58 -134 -118 -8 -16 -12 -33 -8 -37 9 -9 2 -129 -7 -123 -5 2 -6
-7 -3 -20 2 -14 9 -22 15 -18 5 3 7 1 4 -4 -4 -6 -1 -28 6 -49 8 -22 14 -58
16 -81 l2 -43 -48 -1 c-43 -1 -45 -2 -18 -9 23 -6 13 -8 -41 -9 -40 -1 -76 -6
-83 -13 -11 -11 -12 -10 -6 1 8 15 2 13 -80 -18 -28 -11 -43 -21 -35 -23 8 -3
5 -3 -8 -1 -33 5 -158 -82 -257 -182 -52 -52 -121 -168 -110 -185 4 -6 1 -9
-5 -8 -14 3 -38 -54 -39 -90 -1 -13 -5 -21 -10 -18 -19 12 -43 -136 -26 -163
5 -10 4 -12 -3 -7 -14 8 -14 3 -12 -73 1 -49 20 -110 66 -218 8 -17 14 -38 14
-48 0 -10 5 -13 12 -9 6 4 8 3 4 -4 -9 -15 33 -83 47 -75 7 3 9 3 5 -2 -4 -4
-1 -19 7 -34 15 -30 83 -97 93 -93 4 1 7 -3 7 -8 0 -23 103 -91 182 -120 18
-7 35 -21 38 -31 5 -13 16 -19 38 -19 18 -1 45 -7 62 -14 29 -12 29 -13 31
-95 2 -86 14 -128 14 -48 0 25 5 49 10 52 13 8 13 -90 0 -115 -8 -15 -4 -34
19 -85 53 -116 104 -164 169 -159 12 1 22 -2 22 -6 0 -12 177 -55 218 -53 33
2 35 5 12 24 l-25 21 54 -6 c65 -7 73 -12 44 -35 -18 -15 -20 -23 -13 -62 17
-94 22 -160 25 -307 2 -124 6 -157 20 -178 9 -15 12 -23 5 -19 -15 9 -8 -18
22 -85 11 -25 22 -56 24 -70 3 -14 14 -34 25 -46 10 -11 19 -25 19 -32 0 -30
154 -202 255 -284 84 -68 213 -144 270 -159 17 -4 63 -17 103 -28 97 -28 283
-47 311 -31 8 4 25 4 38 -1 15 -5 23 -5 23 2 0 6 5 7 10 4 6 -3 15 -3 21 1 8
4 7 9 -2 15 -10 6 -8 9 9 9 13 0 20 -4 17 -10 -11 -18 37 -11 117 18 43 15 78
33 78 40 0 6 7 12 16 12 14 0 15 -2 3 -17 -9 -11 7 -6 46 14 33 17 86 43 117
58 33 16 89 59 136 104 43 42 67 67 53 56 l-26 -20 24 28 c14 15 29 27 35 27
11 0 56 63 56 78 0 16 41 52 59 52 14 0 26 -19 47 -67 15 -38 44 -88 64 -113
19 -25 44 -58 53 -73 17 -26 22 -28 83 -26 35 1 64 6 64 10 0 5 6 6 13 3 7 -2
44 11 83 30 69 34 85 39 116 37 22 -1 38 -49 26 -81 -6 -18 -4 -35 8 -62 9
-21 20 -38 24 -38 4 0 14 -18 23 -41 11 -27 20 -38 28 -33 8 4 9 3 5 -5 -5 -7
7 -26 27 -46 19 -19 30 -35 24 -35 -6 0 0 -11 13 -25 13 -14 30 -23 37 -21 7
3 12 0 10 -6 -4 -20 216 -148 254 -148 10 0 20 -4 23 -8 14 -24 364 -19 467 7
88 21 279 154 279 194 0 7 17 21 38 30 30 13 48 34 86 97 58 95 78 160 78 255
0 39 4 75 9 81 9 11 16 74 18 157 1 53 7 57 41 24 14 -12 28 -22 31 -22 4 0
11 -4 16 -9 5 -5 3 -6 -4 -2 -8 4 -13 1 -13 -9 0 -9 5 -13 11 -9 7 4 10 1 7
-7 -5 -15 19 -45 29 -35 3 3 12 1 20 -5 17 -15 16 1 -2 25 -8 10 -12 22 -9 27
2 4 -15 24 -38 43 -59 48 -168 118 -168 106 0 -5 5 -12 10 -15 6 -3 10 -12 9
-18 0 -9 -2 -9 -6 1 -9 24 -23 12 -23 -20 0 -22 3 -29 9 -20 6 11 9 9 13 -6 4
-13 2 -19 -6 -16 -11 4 -73 -175 -70 -203 1 -7 -2 -13 -8 -13 -5 0 -6 -5 -3
-10 3 -6 1 -10 -4 -10 -6 0 -11 -6 -11 -12 0 -38 -64 -129 -152 -216 -53 -53
-94 -100 -92 -104 3 -5 -3 -11 -13 -14 -10 -3 -38 -14 -63 -24 -59 -24 -82
-32 -100 -35 -8 -2 -42 -10 -75 -20 -100 -27 -233 -22 -320 14 -22 9 -60 16
-84 16 -44 -1 -46 0 -160 114 -64 64 -123 125 -132 137 -28 37 -70 130 -76
170 -6 40 -41 114 -54 114 -8 0 -57 -39 -109 -87 -19 -18 -45 -33 -58 -33 -13
0 -21 -4 -18 -8 2 -4 -4 -8 -14 -8 -11 0 -17 2 -14 5 2 3 -15 12 -38 21 -32
11 -52 28 -75 63 -18 26 -35 47 -38 47 -3 -1 -9 0 -13 3 -4 2 -1 2 6 1 17 -5
15 3 -9 43 -17 28 -20 43 -15 86 15 118 17 177 6 177 -5 0 -10 -6 -10 -12 0
-24 -59 -138 -75 -144 -8 -3 -15 -14 -15 -24 0 -10 -4 -20 -8 -22 -5 -2 -26
-28 -47 -58 -59 -84 -74 -98 -160 -155 -156 -101 -211 -131 -265 -144 -30 -8
-59 -17 -65 -21 -5 -5 -14 -9 -20 -9 -5 0 -30 -4 -55 -7 -25 -4 -56 -8 -70
-10 -14 -1 -27 -3 -30 -4 -24 -8 -181 5 -239 20 -22 6 -39 6 -47 -1 -8 -7 -13
-6 -16 1 -2 6 -40 26 -85 44 -45 18 -81 30 -78 27 2 -4 -5 -7 -15 -7 -13 0
-16 4 -9 12 6 8 0 15 -23 25 -39 15 -181 110 -221 148 -16 14 -54 64 -84 111
-31 47 -63 96 -73 110 -17 25 -66 154 -76 200 -3 14 -7 49 -9 78 -2 29 -9 60
-16 69 -18 21 -18 190 -1 221 15 27 24 152 11 152 -5 0 -9 -9 -9 -19 0 -23
-16 -22 -50 2 -22 16 -23 17 -4 17 11 0 25 -5 32 -12 9 -9 12 -8 12 5 0 26
-34 35 -145 38 -55 2 -104 6 -110 10 -5 4 -36 13 -68 20 -32 7 -65 19 -75 26
-15 12 -14 13 8 2 24 -12 24 -11 10 7 -8 10 -17 21 -20 24 -32 32 -72 103 -76
135 0 6 -4 32 -9 58 -5 36 -3 59 10 93 13 35 14 48 5 59 -16 19 -34 19 -26 0
6 -18 -2 -45 -15 -45 -5 0 -14 11 -21 25 -8 19 -8 28 2 40 10 12 8 17 -16 26
-16 7 -41 11 -57 10 -15 -1 -40 7 -55 17 -15 11 -53 34 -86 53 -80 47 -155
131 -207 232 -24 47 -47 83 -51 81 -4 -3 -5 1 -3 9 3 7 -2 31 -11 52 -12 29
-16 73 -17 169 0 142 1 148 48 251 17 38 37 84 44 102 24 59 220 222 287 239
27 7 39 31 24 49 -7 9 -6 16 5 25 13 10 21 10 43 0 30 -13 43 -16 117 -24 62
-7 113 -15 144 -22 24 -5 24 -5 18 65 -6 65 -24 130 -49 176 -11 20 -13 97 -3
145 7 38 38 90 56 95 10 3 25 17 34 31 9 13 20 22 24 19 5 -3 23 11 40 31 l31
35 26 -20 c16 -13 34 -18 52 -15 85 16 159 6 205 -27 15 -11 33 -17 39 -13 7
4 8 3 4 -4 -5 -8 0 -12 12 -12 11 0 22 7 26 15 9 24 33 17 56 -15 27 -38 44
-39 35 -2 -9 37 -74 142 -87 142 -6 0 -8 3 -5 7 4 3 2 11 -3 18 -5 6 -11 21
-13 32 -2 12 -9 28 -16 37 -12 14 -12 16 3 10 14 -5 15 -3 7 19 -5 14 -7 28
-4 31 4 3 2 6 -3 6 -5 0 -10 10 -11 23 -2 30 -38 155 -46 163 -4 4 -7 14 -6
23 0 12 3 11 9 -4 5 -12 6 9 3 52 -5 62 -3 73 11 79 26 10 44 54 50 127 4 50
16 88 47 154 23 49 42 93 42 100 0 7 4 10 8 8 4 -3 24 14 45 38 50 56 204 218
180 189 -25 -29 -17 -36 13 -11 13 11 21 22 17 26 -11 11 25 42 42 36 9 -4 13
-2 9 4 -4 6 8 12 31 15 20 3 55 14 77 23 22 10 51 20 65 22 14 2 53 13 87 23
61 19 135 32 197 34 59 3 231 -22 261 -38 17 -9 47 -19 68 -22 20 -4 37 -11
37 -16 0 -6 7 -7 16 -4 10 4 13 2 8 -6 -5 -8 -2 -9 10 -5 11 5 15 3 10 -5 -5
-8 -2 -9 10 -5 10 4 15 3 11 -3 -4 -6 9 -17 27 -24 40 -17 90 -58 181 -149 38
-38 74 -66 80 -63 9 3 9 5 0 5 -7 1 -13 6 -13 12 0 6 7 9 15 6 10 -5 16 4 21
29 7 36 -10 114 -24 114 -7 0 -79 57 -137 108 -16 15 -47 40 -68 55 -22 16
-35 32 -31 39 4 7 3 8 -5 4 -6 -4 -14 -1 -17 7 -3 8 -33 25 -67 37 -34 13 -78
33 -97 45 -35 22 -79 36 -112 36 -10 0 -18 4 -18 8 0 5 -12 11 -27 14 -16 4
-62 14 -103 23 -111 24 -162 24 -295 -2z m235 -160 c0 -8 -19 -13 -24 -6 -3 5
1 9 9 9 8 0 15 -2 15 -3z m180 -21 c16 -9 18 -12 5 -8 -11 4 -56 13 -100 20
l-80 14 75 -6 c41 -3 86 -12 100 -20z m-223 11 c-3 -3 -12 -4 -19 -1 -8 3 -5
6 6 6 11 1 17 -2 13 -5z m-961 -1362 c-4 -3 -14 2 -24 12 -16 18 -16 18 6 6
13 -6 21 -14 18 -18z m-436 -542 c62 -17 67 -19 25 -14 -83 11 -89 11 -103 13
-7 0 -10 6 -7 11 3 6 7 10 8 10 1 -1 36 -10 77 -20z m-862 -715 c2 -30 -1 -55
-6 -55 -5 0 -10 28 -11 62 -3 76 12 69 17 -7z m502 -642 c0 -2 -10 -1 -22 3
-13 4 -28 7 -35 7 -7 0 -10 4 -7 8 4 8 64 -9 64 -18z m501 -430 c12 -16 12
-17 -2 -6 -9 7 -20 9 -24 5 -5 -4 -5 -1 -1 6 9 16 11 15 27 -5z m52 -10 c-7
-2 -19 -2 -25 0 -7 3 -2 5 12 5 14 0 19 -2 13 -5z m249 -108 c-6 -34 -13 -32
-10 4 1 16 5 28 9 26 3 -3 4 -16 1 -30z m-185 -91 c7 -50 -3 -41 -16 15 -6 29
-6 40 1 33 5 -5 12 -27 15 -48z m1933 -578 c0 -3 -4 -8 -10 -11 -5 -3 -10 -1
-10 4 0 6 5 11 10 11 6 0 10 -2 10 -4z m-4 -78 c16 -31 16 -32 -5 -49 -43 -35
-86 17 -48 59 27 29 33 28 53 -10z m1889 -36 c-3 -3 -11 0 -18 7 -9 10 -8 11
6 5 10 -3 15 -9 12 -12z m-1445 -80 c0 -14 -23 -32 -42 -32 -25 0 -23 15 5 28
27 13 37 14 37 4z m-598 -64 c-7 -7 -17 -14 -22 -14 -6 -1 -14 -2 -19 -3 -5 0
-27 -19 -50 -41 -22 -22 -44 -39 -49 -38 -14 4 -87 -14 -114 -28 -17 -9 -29
-10 -33 -4 -3 6 1 10 10 10 9 0 26 7 39 15 13 9 33 17 44 20 11 2 48 22 81 45
40 27 69 40 81 37 11 -3 23 -1 26 4 3 5 8 9 12 9 3 0 0 -6 -6 -12z m1849 -226
c-12 -22 -51 -58 -51 -47 0 9 50 65 57 65 2 0 -1 -8 -6 -18z m-2997 -64 c-3
-4 -9 -8 -15 -8 -5 0 -9 4 -9 8 0 5 7 9 15 9 8 0 12 -4 9 -9z m486 -52 c0 -2
-9 -6 -20 -9 -11 -3 -20 -1 -20 4 0 5 9 9 20 9 11 0 20 -2 20 -4z m2610 -26
c-6 -11 -13 -20 -16 -20 -2 0 0 9 6 20 6 11 13 20 16 20 2 0 0 -9 -6 -20z
m-1005 -150 c3 -6 -1 -7 -9 -4 -18 7 -21 14 -7 14 6 0 13 -4 16 -10z m268
-107 c-7 -2 -19 -2 -25 0 -7 3 -2 5 12 5 14 0 19 -2 13 -5z"/>
        <path d="M3500 6120 c0 -5 5 -10 11 -10 5 0 7 5 4 10 -3 6 -8 10 -11 10 -2 0
-4 -4 -4 -10z"/>
        <path d="M2259 5909 c-25 -4 -60 -14 -77 -23 -18 -9 -32 -14 -32 -10 0 8 -87
-43 -133 -78 -20 -17 -34 -35 -31 -40 5 -7 2 -8 -5 -4 -8 5 -37 -17 -81 -60
-64 -64 -87 -95 -57 -78 7 4 9 3 4 -2 -5 -5 -14 -9 -20 -9 -17 0 -156 -202
-162 -235 0 -3 -8 -18 -17 -35 -8 -16 -18 -46 -22 -65 -3 -19 -9 -46 -12 -60
-3 -14 -7 -44 -8 -67 -1 -23 -5 -45 -9 -49 -10 -10 -9 -56 2 -73 5 -8 16 -11
30 -6 17 5 24 0 37 -28 17 -36 16 -46 -12 -84 -15 -21 -15 -23 1 -29 9 -4 23
0 31 7 18 18 45 109 32 109 -5 0 -6 5 -2 11 3 6 8 27 10 47 10 115 18 154 46
217 71 164 103 223 145 267 25 25 42 51 39 57 -4 6 -1 9 7 6 7 -3 27 9 44 27
38 42 63 63 136 115 32 23 53 44 47 48 -5 3 -10 10 -10 16 0 5 8 4 18 -2 14
-9 30 -4 84 26 46 25 65 41 61 51 -4 11 0 12 18 6 13 -5 40 -5 63 1 44 11 70
26 46 28 -61 4 -173 3 -211 -2z m24 -16 c3 -5 1 -18 -3 -29 -11 -27 -57 -44
-89 -32 l-25 9 23 16 c13 8 37 17 54 19 44 4 45 4 22 14 -16 7 -17 9 -3 9 9 1
19 -2 21 -6z m-130 -87 c7 -17 -1 -26 -24 -26 -21 0 -33 15 -24 30 9 15 42 12
48 -4z"/>
        <path d="M1909 5893 c-13 -16 -12 -17 4 -4 9 7 17 15 17 17 0 8 -8 3 -21 -13z"/>
        <path d="M1505 5850 c-21 -22 -36 -42 -34 -45 3 -2 22 16 43 40 46 56 42 58
-9 5z"/>
        <path d="M3610 5168 c-19 -5 -39 -13 -45 -17 -17 -13 -119 -49 -135 -49 -28 2
-110 -34 -103 -45 3 -6 1 -7 -5 -3 -13 8 -102 -41 -102 -55 0 -5 -8 -12 -17
-16 -59 -21 -185 -162 -198 -223 -4 -16 -11 -32 -16 -35 -5 -4 -6 2 -3 12 4
14 1 12 -15 -6 -12 -13 -21 -32 -21 -44 0 -11 -7 -28 -15 -36 -25 -29 -63
-245 -58 -341 5 -108 5 -110 14 -105 6 4 10 -11 26 -95 2 -14 11 -35 19 -47 8
-12 14 -32 14 -43 0 -12 3 -19 8 -17 4 3 8 -15 10 -39 3 -50 -4 -53 -64 -28
-44 18 -233 28 -268 14 -11 -5 -38 -11 -58 -15 -31 -5 -38 -10 -38 -28 0 -34
-15 -50 -47 -51 -21 -1 -29 -6 -31 -23 -2 -13 1 -23 7 -23 7 0 7 -8 2 -22 -10
-30 -5 -151 9 -194 15 -43 8 -52 -41 -60 -22 -4 -46 -13 -54 -20 -7 -8 -23
-14 -35 -14 -11 0 -37 -7 -57 -15 -41 -17 -46 -18 -39 -6 3 4 -7 6 -22 3 -27
-5 -27 -6 8 -15 l35 -9 -50 -19 c-63 -24 -70 -24 -25 1 25 14 30 19 16 20 -73
1 -290 -220 -321 -328 -9 -31 -24 -70 -32 -85 -8 -16 -10 -26 -4 -23 6 4 11 2
11 -3 0 -6 -4 -11 -10 -11 -6 0 -10 -33 -10 -80 0 -44 4 -80 9 -80 5 0 7 -9 4
-20 -8 -30 24 -117 70 -193 23 -37 47 -76 52 -87 40 -70 171 -164 215 -153 11
3 20 0 20 -6 0 -6 9 -11 21 -11 11 0 18 -4 15 -9 -5 -7 15 -15 69 -27 6 -1 28
-3 50 -4 35 -2 37 -3 15 -10 l-25 -8 25 -2 c43 -4 94 1 135 12 34 9 37 12 20
19 -13 5 -15 8 -5 9 24 1 -14 26 -125 82 -55 27 -107 56 -116 64 -8 8 -20 14
-25 14 -10 0 -54 44 -54 55 0 4 -9 19 -19 34 -19 26 -59 118 -66 151 -2 8 -11
33 -21 55 -25 57 -24 180 1 222 16 28 17 34 4 50 -13 16 -12 17 4 4 15 -12 17
-11 17 8 0 11 5 21 10 21 6 0 10 6 10 13 0 8 11 36 25 63 14 27 25 54 25 61 0
17 68 70 127 98 28 14 66 37 84 52 18 16 30 22 25 16 -10 -18 -2 -16 44 7 22
11 40 18 40 15 0 -3 10 0 23 6 12 7 39 12 60 12 20 0 37 3 37 7 0 3 14 4 31 2
31 -5 32 -4 24 24 -4 16 -11 47 -15 69 -4 22 -15 57 -24 77 -20 46 -20 75 -2
110 13 24 12 26 -2 21 -10 -4 3 12 28 35 54 48 110 66 199 64 240 -7 225 -5
235 -35 11 -30 18 -33 35 -13 9 10 5 23 -15 55 -15 22 -28 52 -30 65 -4 38
-41 116 -56 116 -10 0 -10 2 1 9 12 8 11 18 -7 68 -21 57 -30 163 -18 212 3
13 12 34 20 46 8 13 15 31 14 41 -1 17 3 38 14 84 1 8 6 17 9 20 3 3 20 32 38
65 31 57 31 58 6 30 -15 -17 -23 -22 -17 -10 13 26 179 180 257 238 33 25 67
52 77 60 24 22 62 33 153 43 28 2 70 7 95 10 71 8 211 5 224 -5 6 -5 29 -12
51 -15 74 -12 129 -39 214 -105 136 -107 189 -143 200 -137 6 4 7 15 2 29 -5
12 -14 41 -20 63 -8 28 -28 58 -63 93 -28 28 -55 51 -59 51 -5 0 -34 18 -65
40 -56 39 -81 50 -69 30 3 -5 0 -7 -9 -4 -8 3 -12 12 -10 19 6 14 -6 24 -36
30 -11 2 -18 0 -15 -6 4 -5 -1 -9 -9 -9 -8 0 -17 4 -21 9 -3 5 -20 13 -38 17
-27 6 -29 8 -13 14 25 9 17 13 -72 40 -53 15 -89 20 -130 16 -38 -3 -45 -2
-22 3 29 6 31 8 15 14 -38 12 -110 15 -145 5z m525 -178 c3 0 3 5 -1 11 -4 8
0 8 15 0 24 -13 28 -23 6 -15 -29 12 -14 -5 28 -29 64 -38 136 -105 158 -148
11 -22 17 -39 15 -39 -13 0 -63 27 -74 40 -12 13 -13 13 -6 0 4 -9 3 -12 -2
-7 -5 5 -10 13 -10 18 -1 5 -2 14 -3 19 0 6 -6 10 -12 10 -5 0 -7 -6 -3 -12 4
-7 3 -9 -1 -5 -5 4 -10 15 -11 24 -2 9 -9 20 -16 24 -81 48 -142 97 -143 116
-1 21 0 21 26 7 16 -8 31 -14 34 -14z m-448 4 c-3 -3 -12 -4 -19 -1 -8 3 -5 6
6 6 11 1 17 -2 13 -5z m250 0 c-3 -3 -12 -4 -19 -1 -8 3 -5 6 6 6 11 1 17 -2
13 -5z m198 -74 c3 -5 -8 -2 -25 6 -16 9 -32 19 -35 24 -3 5 8 2 25 -6 16 -9
32 -19 35 -24z m-1040 -950 c9 -16 13 -30 11 -30 -3 0 -12 14 -21 30 -9 17
-13 30 -11 30 3 0 12 -13 21 -30z m-385 -48 c0 -4 -17 -6 -37 -4 -59 5 -63 10
-10 11 26 1 47 -3 47 -7z m47 -8 c-3 -3 -12 -4 -19 -1 -8 3 -5 6 6 6 11 1 17
-2 13 -5z m-288 -413 c39 -25 -32 -70 -76 -49 -37 19 -34 31 12 44 50 16 47
15 64 5z m-299 -184 c0 -2 -10 -12 -22 -23 l-23 -19 19 23 c18 21 26 27 26 19z
m-206 -111 c-3 -8 -13 -17 -22 -21 -13 -5 -13 -2 3 15 21 24 26 25 19 6z m131
-145 c-9 -16 -25 -3 -18 15 4 10 9 12 15 6 6 -6 7 -15 3 -21z m-228 -148 c-3
-10 -5 -4 -5 12 0 17 2 24 5 18 2 -7 2 -21 0 -30z m7 -39 c3 -8 2 -12 -4 -9
-6 3 -10 10 -10 16 0 14 7 11 14 -7z m580 -485 c31 -24 28 -34 -11 -37 -37 -3
-66 18 -57 41 8 23 36 22 68 -4z"/>
        <path d="M5055 4795 c-27 -9 -67 -18 -88 -22 -21 -3 -35 -8 -32 -11 3 -4 -13
-11 -36 -17 -45 -11 -62 -29 -32 -35 10 -2 74 -4 143 -5 130 -1 209 -15 273
-47 20 -10 37 -15 37 -11 0 5 5 0 11 -9 5 -10 15 -18 20 -18 18 0 122 -76 174
-126 137 -133 186 -249 187 -443 0 -98 -2 -124 -18 -206 -7 -34 -61 -137 -108
-205 -17 -25 -32 -52 -34 -60 -2 -8 -10 -22 -19 -30 -12 -12 -11 -8 2 15 13
21 4 15 -31 -21 -55 -58 -159 -134 -183 -134 -29 0 -81 -39 -81 -61 0 -29 18
-59 36 -59 8 0 17 -7 20 -15 4 -8 12 -15 18 -15 7 0 40 -14 73 -30 55 -27 144
-109 181 -165 7 -11 10 -13 6 -5 -5 11 -4 12 5 4 6 -6 14 -23 17 -39 3 -15 12
-44 20 -64 17 -39 21 -54 29 -116 4 -22 10 -56 15 -75 6 -19 10 -54 10 -76 0
-58 -27 -199 -51 -264 -49 -133 -157 -261 -282 -334 -37 -21 -67 -41 -67 -43
0 -2 5 -1 10 2 6 3 10 4 10 1 0 -3 -10 -10 -21 -17 -17 -9 -20 -8 -13 3 4 7
-2 5 -14 -6 -22 -19 -41 -23 -124 -27 -27 -2 -48 -5 -48 -9 0 -14 -187 12
-258 36 -43 14 -130 54 -195 89 -130 71 -161 81 -121 38 20 -22 23 -29 12 -38
-24 -19 -42 -72 -53 -160 -1 -11 -3 -23 -4 -26 0 -3 -13 -19 -27 -34 -15 -16
-24 -35 -21 -46 3 -10 1 -17 -4 -16 -5 1 -22 -23 -38 -52 -21 -43 -39 -61 -77
-82 -27 -15 -54 -28 -61 -28 -6 -1 -24 -6 -40 -12 -22 -8 -25 -12 -13 -20 11
-7 8 -8 -11 -3 -15 3 -30 1 -33 -5 -5 -7 2 -11 16 -11 17 0 20 -2 9 -9 -8 -5
-24 -6 -37 -1 -12 5 -25 6 -28 2 -25 -24 -192 -13 -267 19 -79 33 -132 72
-186 136 -26 31 -60 70 -75 87 l-28 31 -19 -25 c-11 -14 -23 -21 -28 -16 -4 4
-8 48 -7 97 0 72 -2 89 -14 89 -9 0 -12 -3 -9 -7 4 -3 3 -11 -3 -18 -22 -26
-18 -89 10 -160 26 -65 82 -146 98 -144 19 3 26 -2 14 -10 -11 -6 -7 -16 16
-42 16 -19 34 -44 41 -57 7 -12 17 -20 22 -16 6 3 23 -2 37 -12 15 -11 41 -26
57 -34 17 -8 33 -19 36 -24 4 -5 33 -9 65 -10 33 0 62 -5 65 -9 4 -5 36 -11
72 -13 49 -2 70 1 81 11 21 21 43 20 25 -1 -11 -13 -9 -15 12 -10 13 3 49 10
79 16 115 25 280 134 280 187 0 10 9 24 20 31 11 7 20 17 20 23 0 5 -5 7 -11
3 -6 -3 2 13 17 37 30 49 57 126 48 141 -3 5 -1 15 5 22 6 7 10 36 10 65 -1
28 1 55 5 58 3 3 6 -14 7 -38 l1 -44 11 40 c18 61 23 65 57 53 37 -12 45 -24
42 -62 -3 -32 22 -66 48 -66 9 0 26 -9 38 -21 20 -18 78 -33 167 -43 12 -1 27
-6 34 -11 10 -6 12 -4 6 5 -6 10 -4 11 6 4 8 -5 16 -9 19 -10 3 0 13 -4 23 -9
10 -4 60 -5 110 -1 121 9 117 8 117 19 0 5 6 7 14 4 8 -3 30 -1 48 4 18 6 44
12 58 15 72 14 151 69 260 180 60 62 115 125 120 140 6 15 14 24 17 20 8 -7
44 75 66 150 11 39 14 94 12 240 -3 178 -4 193 -30 261 -16 43 -32 70 -38 66
-6 -3 -7 -1 -3 6 5 7 -14 37 -46 74 -29 34 -44 55 -33 47 15 -11 14 -8 -4 12
-13 15 -28 25 -33 22 -5 -3 -7 0 -6 8 2 7 -4 12 -12 10 -8 -2 -12 0 -8 4 11
10 -12 35 -26 27 -6 -3 -8 -3 -4 2 8 9 0 17 -62 65 -24 19 -40 28 -36 20 5 -8
-2 -5 -15 8 -13 13 -43 37 -67 53 -50 35 -45 53 17 64 58 10 134 59 214 138
101 100 150 163 184 237 102 222 108 246 90 398 -11 91 -76 262 -111 291 -9 7
-13 18 -10 23 8 13 -132 152 -146 143 -6 -4 -9 -1 -8 7 2 7 -3 12 -10 10 -8
-1 -11 2 -8 6 10 16 -171 132 -204 132 -6 0 -9 -4 -6 -8 7 -11 -111 5 -132 18
-13 8 -4 9 33 6 45 -5 47 -5 15 4 -66 19 -241 21 -295 5z m660 -225 c10 -11
16 -20 13 -20 -3 0 -13 9 -23 20 -10 11 -16 20 -13 20 3 0 13 -9 23 -20z
m-380 -1220 c21 -23 15 -45 -14 -53 -12 -3 -19 -1 -15 4 3 5 -1 9 -9 9 -20 0
-30 29 -16 46 16 19 33 17 54 -6z m44 -3 c8 -10 7 -14 -2 -14 -8 0 -14 6 -14
14 0 7 1 13 2 13 2 0 8 -6 14 -13z m121 -114 c27 -18 41 -35 35 -41 -6 -7 -75
39 -75 49 0 13 13 11 40 -8z m240 -873 c0 -5 -5 -10 -11 -10 -5 0 -7 5 -4 10
3 6 8 10 11 10 2 0 4 -4 4 -10z m-60 -83 c0 -2 -15 -16 -32 -33 l-33 -29 29
33 c28 30 36 37 36 29z m-207 -187 c-28 -31 -39 -39 -27 -17 13 22 37 47 46
47 4 0 -4 -13 -19 -30z m-937 -122 c-7 -75 -25 -116 -27 -62 -2 43 1 65 12
102 17 52 22 37 15 -40z m974 28 c0 -2 -8 -10 -17 -17 -16 -13 -17 -12 -4 4
13 16 21 21 21 13z m-715 -37 c12 -19 -5 -23 -22 -6 -16 16 -16 17 -1 17 9 0
20 -5 23 -11z m-1248 -135 c-3 -3 7 -17 23 -31 43 -36 68 -74 78 -121 8 -33 7
-39 -4 -35 -8 3 -14 9 -14 13 0 5 -22 31 -48 59 -27 28 -47 51 -46 51 2 0 -4
12 -11 27 -13 25 -13 29 3 35 23 9 27 9 19 2z m846 -36 c-6 -36 -21 -60 -18
-31 2 23 15 63 20 63 3 0 2 -15 -2 -32z m28 -121 c-12 -19 -29 -41 -38 -48
-19 -16 -16 -11 27 53 31 46 40 41 11 -5z m-681 -87 c13 -8 13 -10 -2 -10 -9
0 -20 5 -23 10 -8 13 5 13 25 0z"/>
        <path d="M970 4770 c-8 -5 -10 -10 -5 -10 6 0 17 5 25 10 8 5 11 10 5 10 -5 0
-17 -5 -25 -10z"/>
        <path d="M4740 4680 c-14 -11 -33 -20 -43 -20 -11 0 -31 -7 -46 -16 -30 -18
-75 -81 -62 -88 12 -8 74 11 130 40 27 13 63 27 80 30 42 9 47 21 20 50 -27
29 -46 30 -79 4z m0 -45 c0 -2 -9 -9 -20 -15 -22 -12 -44 -5 -35 11 6 9 55 13
55 4z"/>
        <path d="M1285 4610 c-8 -13 3 -50 16 -51 34 -5 44 -2 47 14 7 35 -46 65 -63
37z"/>
        <path d="M1220 4588 c-31 -11 -77 -55 -95 -88 -7 -14 -16 -50 -19 -81 -4 -31
-8 -65 -10 -76 -6 -27 8 -46 30 -41 15 3 20 16 26 65 4 33 16 80 28 102 11 23
18 46 15 52 -4 5 -1 8 5 7 14 -4 64 58 53 65 -4 3 -19 0 -33 -5z"/>
        <path d="M6943 4215 c0 -33 2 -45 4 -27 2 18 2 45 0 60 -2 15 -4 0 -4 -33z"/>
        <path d="M973 4042 c-22 -30 -29 -33 -57 -27 -17 4 -54 8 -82 9 -44 1 -60 -5
-130 -49 -63 -40 -89 -65 -128 -120 -49 -71 -84 -138 -91 -177 -3 -11 -12 -41
-22 -66 -16 -42 -19 -95 -12 -199 1 -23 6 -40 10 -37 4 2 5 -4 2 -14 -2 -10 7
-31 21 -47 14 -17 27 -33 27 -37 1 -5 3 -12 4 -18 1 -5 3 -18 4 -27 5 -39 19
24 19 79 -1 30 6 74 14 99 9 24 21 64 28 89 53 198 137 328 267 416 32 21 64
46 71 54 8 8 11 9 7 3 -4 -9 -1 -11 9 -7 9 3 14 10 11 14 -2 4 17 13 43 20 94
24 112 32 106 42 -4 6 -3 8 2 5 11 -6 42 9 34 16 -3 3 -33 7 -68 9 -61 4 -63
3 -89 -30z m62 8 c-3 -5 -12 -10 -18 -10 -7 0 -6 4 3 10 19 12 23 12 15 0z
m-330 -98 c-6 -5 -31 -26 -56 -48 l-46 -39 49 48 c27 26 52 47 56 47 3 0 2 -4
-3 -8z m135 1 c-8 -3 -23 -10 -32 -15 -14 -6 -16 -5 -12 7 4 8 18 15 33 14 15
0 20 -3 11 -6z m-60 -76 c0 -2 -9 -12 -20 -22 -24 -21 -27 -14 -4 9 15 15 24
20 24 13z m-249 -361 c4 -67 -5 -126 -21 -126 -11 0 -18 22 -25 91 -6 54 -6
55 19 55 19 0 26 -5 27 -20z"/>
        <path d="M1355 2380 c4 -6 11 -8 16 -5 14 9 11 15 -7 15 -8 0 -12 -5 -9 -10z"/>
    </g>
</svg>
