<?xml version="1.0" standalone="no"?>
<!DOCTYPE svg PUBLIC "-//W3C//DTD SVG 20010904//EN"
	"http://www.w3.org/TR/2001/REC-SVG-20010904/DTD/svg10.dtd">
<svg version="1.0" xmlns="http://www.w3.org/2000/svg"
	 width="700.000000pt" height="700.000000pt" viewBox="0 0 700.000000 700.000000"
	 preserveAspectRatio="xMidYMid meet">
	<metadata>
		Created by potrace 1.14, written by Peter Selinger 2001-2017
	</metadata>
	<g transform="translate(0.000000,700.000000) scale(0.100000,-0.100000)"
	   fill="#000000" stroke="none">
		<path d="M4434 6409 c-28 -4 -73 -14 -100 -22 -27 -9 -67 -19 -89 -23 -66 -11
-198 -65 -230 -95 -16 -15 -46 -34 -65 -42 -47 -19 -170 -152 -206 -223 -26
-51 -88 -123 -106 -124 -3 0 -12 16 -18 35 -6 19 -15 35 -20 35 -4 0 -11 7
-14 16 -4 10 -2 13 6 8 16 -10 -21 49 -60 95 -17 20 -54 64 -83 98 -60 72 -77
78 -200 71 -92 -5 -109 -16 -89 -53 16 -29 8 -40 -28 -40 -26 0 -27 -2 -35
-77 -8 -72 -6 -82 19 -138 35 -79 54 -95 54 -47 0 20 5 39 10 42 6 3 10 14 10
23 1 9 17 29 37 45 31 23 46 27 102 27 48 0 75 -5 99 -20 31 -19 72 -73 72
-96 0 -7 15 -35 33 -62 17 -28 52 -83 76 -121 24 -39 48 -71 52 -71 13 0 45
52 60 95 7 22 23 51 35 65 11 14 35 45 52 70 16 25 47 62 69 82 55 53 245 158
302 167 26 4 58 15 72 24 13 9 31 17 41 17 10 0 18 7 18 15 0 8 6 12 13 10 6
-3 64 -6 128 -8 108 -2 119 -4 156 -30 21 -15 52 -27 69 -27 36 -1 127 -37
201 -82 32 -19 83 -65 120 -108 152 -177 225 -331 254 -537 11 -82 11 -98 -3
-140 -34 -97 -79 -219 -97 -263 -50 -117 -62 -153 -57 -166 7 -19 58 -18 104
2 20 10 45 19 56 21 10 2 73 30 140 62 142 69 218 83 424 80 209 -3 243 -10
356 -73 172 -98 242 -153 309 -240 33 -44 68 -87 76 -96 27 -27 88 -162 101
-223 7 -31 16 -57 20 -57 4 0 6 -82 4 -182 l-2 -183 -46 -110 c-44 -103 -107
-213 -150 -260 -10 -11 -33 -42 -50 -69 -50 -81 -266 -254 -340 -273 -50 -13
-96 -46 -96 -69 0 -19 57 -59 126 -90 32 -14 66 -32 76 -41 9 -8 22 -15 30
-17 7 -1 28 -12 45 -24 17 -12 39 -22 48 -22 9 0 13 -5 10 -10 -4 -6 7 -26 24
-46 80 -91 219 -325 237 -400 4 -16 10 -33 14 -39 5 -5 7 -103 5 -216 -2 -204
-10 -256 -42 -305 -7 -12 -15 -35 -16 -53 -1 -17 -5 -31 -8 -31 -7 0 -89 -134
-89 -145 0 -17 -161 -181 -208 -212 -30 -20 -56 -42 -59 -50 -3 -7 -12 -13
-21 -13 -8 0 -67 -22 -131 -49 -132 -56 -248 -79 -376 -75 -86 3 -202 24 -261
49 -20 8 -40 13 -44 10 -4 -2 -15 4 -25 15 -10 11 -28 20 -39 20 -17 0 -13 -8
27 -45 46 -43 58 -65 36 -65 -33 0 -139 92 -139 120 0 21 -52 69 -122 114 -31
20 -59 40 -63 46 -9 15 -28 12 -22 -4 3 -8 -1 -17 -10 -20 -12 -5 -14 -16 -10
-50 5 -34 -3 -68 -38 -175 -25 -73 -56 -152 -70 -175 -14 -23 -68 -88 -120
-143 -52 -55 -91 -103 -88 -107 3 -3 -5 -6 -18 -6 -14 0 -33 -6 -44 -14 -11
-8 -72 -28 -136 -45 -148 -40 -243 -41 -343 -6 -49 17 -81 23 -110 19 -41 -5
-42 -5 -147 98 -153 148 -209 231 -229 340 -10 53 -33 98 -50 98 -5 0 -41 -29
-80 -64 -84 -76 -109 -82 -175 -47 -41 22 -56 39 -97 111 -26 47 -46 91 -43
99 3 7 8 61 11 120 7 110 -1 124 -26 46 -16 -49 -56 -126 -63 -119 -2 2 -24
-26 -48 -63 -68 -105 -102 -137 -233 -220 -66 -42 -124 -80 -127 -85 -3 -5
-16 -10 -29 -13 -12 -2 -48 -12 -79 -21 -149 -46 -293 -55 -426 -30 -38 8 -75
11 -82 9 -7 -3 -13 -1 -13 5 0 6 -17 13 -38 17 -22 3 -77 26 -124 49 -177 90
-299 191 -363 303 -15 26 -38 62 -50 78 -31 42 -74 174 -85 259 -5 39 -16 88
-24 108 -21 50 -20 109 4 199 11 41 19 90 19 109 0 38 -20 74 -35 62 -4 -4 -3
0 4 9 10 14 -2 16 -116 18 -79 1 -143 7 -170 16 -23 8 -49 15 -56 15 -7 0 -26
17 -42 37 -95 120 -122 226 -83 320 12 30 11 34 -6 47 -19 14 -20 13 -23 -15
-2 -16 -9 -29 -17 -29 -19 0 -29 38 -15 55 9 11 5 17 -19 29 -16 9 -43 16 -58
16 -44 0 -191 92 -252 157 -36 40 -71 94 -110 173 l-56 115 -3 155 -3 155 45
101 c25 56 46 106 46 112 0 22 173 171 240 206 76 40 87 51 71 69 -5 7 -6 18
-1 26 7 12 18 11 71 -3 55 -14 206 -36 248 -36 19 0 7 104 -22 190 -28 83 -30
204 -4 243 9 14 17 34 18 44 0 10 3 13 6 6 5 -13 51 19 116 80 26 25 31 26 46
13 11 -10 41 -14 106 -13 90 0 105 -3 189 -50 28 -15 30 -15 49 8 l19 23 26
-32 c25 -30 52 -43 52 -24 0 12 -61 125 -85 157 -12 17 -25 53 -29 83 -4 29
-16 81 -26 115 -11 34 -25 111 -32 170 l-11 108 26 25 c15 14 27 26 28 27 0 1
4 37 8 79 13 123 67 224 194 364 56 62 107 113 113 113 6 1 32 21 59 45 29 27
61 47 83 51 20 4 53 15 74 26 20 10 45 19 55 19 10 0 44 9 74 20 89 31 214 42
321 30 91 -11 168 -35 168 -52 0 -4 23 -8 52 -8 28 0 48 -3 45 -7 -9 -9 82
-63 106 -63 10 0 15 -4 12 -10 -3 -5 0 -10 8 -10 8 0 58 -43 111 -95 54 -52
101 -93 106 -90 17 10 33 83 26 118 -5 25 -17 42 -44 60 -20 14 -86 71 -147
127 -60 55 -121 103 -135 107 -14 3 -63 25 -110 48 -93 47 -319 105 -406 105
-60 0 -304 -46 -318 -60 -5 -5 -17 -10 -27 -10 -9 0 -27 -8 -40 -18 -13 -10
-43 -24 -66 -31 -24 -6 -43 -16 -43 -21 0 -5 -10 -12 -22 -16 -89 -27 -372
-327 -404 -427 -4 -12 -13 -27 -20 -35 -8 -7 -14 -23 -14 -35 0 -12 -10 -42
-22 -67 -20 -41 -22 -64 -26 -270 l-4 -225 47 -120 c25 -66 57 -137 71 -157
24 -37 31 -68 16 -68 -5 0 -39 18 -76 41 l-68 41 -107 0 c-172 0 -221 -5 -235
-24 -7 -10 -22 -18 -32 -18 -53 0 -137 -94 -137 -152 0 -16 -5 -28 -10 -28 -9
0 -6 -28 8 -80 5 -19 4 -22 -4 -10 -19 26 -13 -10 14 -94 34 -104 33 -122 -6
-130 -17 -3 -48 -6 -68 -6 -81 0 -212 -48 -308 -113 -160 -108 -282 -251 -320
-375 -10 -32 -20 -59 -24 -62 -17 -13 -32 -104 -33 -205 -1 -95 2 -118 23
-165 37 -88 39 -94 46 -120 13 -48 91 -166 148 -223 64 -64 161 -131 204 -141
16 -4 35 -16 44 -28 9 -12 35 -24 64 -29 69 -13 75 -21 75 -98 0 -166 102
-361 188 -361 16 0 32 -4 37 -9 16 -15 176 -51 224 -51 l46 0 -25 20 -25 20
49 -2 c52 -3 75 -25 36 -35 -14 -4 -19 -11 -15 -22 13 -33 25 -191 25 -342 0
-124 3 -159 14 -169 8 -6 12 -18 9 -25 -2 -8 7 -40 21 -71 14 -31 28 -68 31
-81 2 -14 12 -37 22 -52 9 -14 18 -32 19 -38 4 -25 75 -111 153 -186 162 -155
284 -229 467 -282 84 -24 277 -51 294 -40 4 2 47 7 96 10 60 4 109 14 151 30
34 14 71 25 83 25 25 0 120 47 120 59 0 5 16 11 35 14 74 12 243 160 319 280
50 77 72 76 104 -8 13 -33 44 -86 68 -118 24 -31 44 -61 44 -67 0 -21 45 -32
107 -27 48 4 86 15 150 47 74 36 89 40 111 31 23 -11 24 -16 19 -60 -4 -37 -1
-57 13 -82 10 -19 28 -52 38 -75 11 -22 35 -57 54 -77 19 -20 33 -38 31 -41
-6 -6 85 -82 132 -111 22 -14 78 -44 125 -67 l85 -42 153 -4 c206 -5 307 9
399 56 99 50 158 95 188 142 14 22 31 40 39 40 27 0 76 65 126 164 54 109 56
120 66 341 3 66 7 126 10 134 7 21 43 -15 66 -66 10 -23 37 -58 59 -77 51 -43
176 -109 248 -130 29 -9 59 -20 66 -26 18 -15 298 -26 471 -20 104 4 146 9
165 21 13 9 42 22 64 29 22 7 44 16 49 21 6 5 18 9 28 9 106 0 383 296 493
525 35 74 80 242 89 335 10 113 -35 381 -71 418 -7 7 -13 21 -13 30 0 10 -7
28 -16 40 -8 12 -17 30 -19 41 -7 35 -149 233 -202 281 -68 59 -270 180 -303
180 -38 0 -57 16 -45 36 6 9 70 50 142 92 73 43 150 91 170 107 60 48 193 184
193 198 0 7 9 18 20 25 11 7 20 21 20 32 0 12 7 23 15 26 16 7 75 118 75 143
0 9 7 26 15 38 25 35 85 241 85 291 0 35 3 43 10 32 7 -10 8 10 4 65 -4 44
-10 84 -15 90 -5 5 -9 24 -9 42 0 19 -9 52 -20 75 -11 23 -23 57 -26 77 -4 20
-12 43 -19 51 -7 8 -19 34 -26 57 -6 23 -19 51 -28 61 -9 10 -17 24 -19 31 -4
19 -38 61 -62 78 -11 8 -20 21 -20 29 0 20 -105 122 -181 176 -112 80 -331
171 -419 175 -30 1 -82 6 -115 10 -75 9 -158 10 -255 1 -75 -6 -97 -13 -313
-107 -53 -24 -104 -40 -112 -37 -45 17 -34 101 42 319 31 88 36 114 36 192 -1
204 -108 439 -282 618 -134 138 -220 188 -406 237 -140 37 -220 48 -291 39z
m-856 -541 c7 -7 12 -19 12 -27 0 -11 -4 -10 -20 4 -21 19 -26 35 -12 35 4 0
13 -5 20 -12z m-428 -208 c0 -5 -4 -10 -10 -10 -5 0 -10 5 -10 10 0 6 5 10 10
10 6 0 10 -4 10 -10z m2130 -240 c0 -5 -5 -10 -11 -10 -5 0 -7 5 -4 10 3 6 8
10 11 10 2 0 4 -4 4 -10z m-33 -292 c-3 -7 -5 -2 -5 12 0 14 2 19 5 13 2 -7 2
-19 0 -25z m26 -26 c-3 -12 -9 -22 -14 -22 -5 0 -3 11 3 25 13 30 20 28 11 -3z
m377 -30 l-35 -16 45 -6 45 -6 -58 -8 c-83 -12 -109 21 -34 43 54 16 76 11 37
-7z m-313 -103 c22 -19 15 -28 -47 -59 -61 -31 -73 -31 -43 2 9 11 11 18 5 18
-12 0 -17 62 -6 73 7 7 70 -17 91 -34z m83 11 c-20 -13 -53 -13 -45 0 3 6 18
10 33 10 21 0 24 -2 12 -10z m-5320 -1608 c-6 -21 -8 -13 -8 33 0 51 1 55 8
27 4 -19 4 -46 0 -60z m6001 -203 c20 -20 20 -23 5 -31 -26 -15 -56 0 -56 28
0 30 23 31 51 3z m129 -89 c0 -5 -4 -10 -10 -10 -5 0 -10 5 -10 10 0 6 5 10
10 10 6 0 10 -4 10 -10z m268 -286 c-4 -3 -12 5 -18 18 -12 22 -12 22 6 6 10
-10 15 -20 12 -24z m149 -381 c-3 -10 -5 -4 -5 12 0 17 2 24 5 18 2 -7 2 -21
0 -30z m-5270 -118 c9 -25 -2 -27 -22 -5 -17 18 -17 20 -1 20 9 0 19 -7 23
-15z m1772 -829 c18 -33 10 -60 -19 -64 -37 -6 -54 24 -33 59 21 35 36 37 52
5z m431 -131 c-13 -16 -40 -21 -40 -7 0 10 42 32 49 26 2 -2 -2 -10 -9 -19z
m-666 -97 c-63 -59 -100 -85 -74 -53 14 17 13 17 -10 10 -32 -10 -21 2 54 54
83 57 99 51 30 -11z m2645 40 c11 -10 14 -10 18 0 3 8 25 12 66 11 63 -1 62
-3 -7 -14 -29 -5 -36 -9 -25 -15 11 -7 11 -12 2 -21 -10 -10 -25 -9 -70 6 -43
14 -52 20 -35 23 12 2 20 8 17 13 -9 14 19 11 34 -3z m-718 -226 c-12 -22 -41
-48 -41 -36 0 8 40 54 47 54 2 0 -1 -8 -6 -18z m-906 -290 c-3 -3 -11 0 -18 7
-9 10 -8 11 6 5 10 -3 15 -9 12 -12z"/>
		<path d="M2210 5849 c-121 -57 -156 -78 -209 -124 -61 -52 -167 -164 -213
-226 -34 -44 -108 -178 -108 -195 0 -7 -4 -14 -9 -16 -12 -4 -41 -139 -41
-186 0 -18 -5 -41 -12 -52 -18 -29 1 -75 31 -75 25 0 51 -29 51 -56 0 -10 -8
-31 -17 -48 -14 -23 -15 -33 -6 -42 31 -31 73 65 73 165 0 96 24 181 89 321
58 125 64 134 162 233 56 57 131 122 166 145 44 29 59 44 50 50 -8 6 -6 7 7 3
10 -4 24 -2 30 3 35 29 143 81 190 92 31 7 56 16 56 21 0 4 -55 8 -122 8 -104
0 -130 -3 -168 -21z m100 -29 c0 -14 -58 -42 -81 -38 -27 4 -26 21 2 35 29 15
79 17 79 3z m-130 -70 c0 -16 -32 -20 -46 -6 -12 13 -12 16 3 25 18 9 43 -2
43 -19z"/>
		<path d="M3655 5132 c-11 -2 -58 -20 -104 -38 -46 -19 -95 -34 -108 -34 -14 0
-55 -15 -92 -34 -92 -46 -111 -59 -111 -74 0 -7 -4 -11 -9 -8 -25 16 -154
-113 -194 -194 -14 -27 -27 -46 -30 -43 -4 3 -14 -12 -23 -33 -9 -22 -23 -51
-31 -66 -46 -89 -73 -408 -38 -454 8 -10 15 -31 15 -45 0 -34 20 -90 30 -84 4
2 10 -17 14 -43 3 -26 9 -59 12 -74 8 -34 -10 -37 -59 -11 -54 28 -331 20
-356 -11 -5 -6 -11 -22 -13 -36 -2 -20 -10 -26 -34 -28 -31 -3 -31 -4 -37 -65
-7 -70 -1 -156 14 -193 17 -47 12 -61 -28 -69 -21 -4 -49 -13 -63 -20 -37 -19
-93 -35 -122 -35 -28 0 -101 -36 -162 -81 -23 -16 -74 -69 -114 -117 -66 -78
-77 -98 -109 -192 -32 -95 -35 -112 -30 -185 7 -106 36 -193 98 -295 61 -103
109 -154 171 -186 26 -13 50 -28 53 -34 4 -6 16 -8 28 -5 17 5 18 4 8 -4 -15
-10 12 -20 148 -55 58 -15 175 -6 196 15 14 15 -23 43 -120 91 -199 100 -248
163 -326 413 -17 57 -11 144 15 199 13 28 43 93 65 145 23 51 52 102 64 112
12 11 56 36 97 56 41 21 77 40 80 44 3 3 14 8 25 12 11 3 40 13 65 22 25 10
59 18 75 19 17 1 46 3 65 4 49 3 64 15 52 38 -5 11 -14 42 -20 69 -5 28 -18
70 -28 96 -16 42 -16 47 -1 79 9 18 17 38 17 43 0 20 60 66 100 77 25 7 98 9
188 7 145 -4 147 -5 152 -28 7 -28 37 -38 46 -15 3 8 -5 39 -19 68 -58 128
-106 281 -108 353 -2 56 8 113 23 133 6 7 12 26 14 43 17 143 118 280 314 429
47 35 87 68 88 72 2 4 14 8 27 8 13 0 25 4 27 9 2 5 83 14 180 21 189 13 193
13 338 -33 36 -11 67 -23 70 -26 3 -4 21 -18 40 -31 19 -14 67 -51 105 -83
111 -93 146 -104 125 -41 -5 16 -12 41 -15 56 -14 71 -258 258 -343 263 -68 4
-69 4 -53 14 26 17 -119 71 -189 71 -20 0 -40 4 -45 9 -12 10 -83 19 -110 13z
m555 -225 c25 -17 61 -44 80 -60 35 -30 90 -102 90 -119 0 -16 -67 28 -100 66
-19 21 -67 60 -107 87 -50 34 -73 56 -73 70 0 19 1 19 33 3 17 -9 52 -30 77
-47z m-1705 -1467 c0 -24 -50 -46 -81 -35 -39 14 -40 30 -2 43 44 14 83 11 83
-8z m-385 -421 c0 -11 -4 -18 -10 -14 -5 3 -7 12 -3 20 7 21 13 19 13 -6z
m362 -679 c15 -16 15 -19 2 -24 -46 -18 -90 1 -79 34 6 18 12 20 33 15 15 -4
35 -15 44 -25z"/>
		<path d="M5110 4753 c-61 -10 -213 -54 -231 -66 -17 -13 -14 -15 35 -27 36 -8
88 -11 153 -7 113 6 159 -4 268 -60 212 -109 348 -261 386 -432 14 -61 13
-274 -2 -341 -34 -162 -241 -408 -384 -457 -51 -17 -80 -51 -70 -82 8 -26 60
-63 119 -85 62 -24 140 -87 184 -151 19 -27 38 -49 43 -47 5 1 9 -8 9 -20 0
-12 8 -40 19 -62 10 -23 26 -94 36 -158 16 -103 17 -128 5 -205 -16 -111 -41
-193 -80 -260 -45 -78 -145 -180 -230 -234 -41 -26 -86 -57 -100 -67 -19 -15
-51 -22 -130 -28 -210 -18 -287 2 -543 139 -49 26 -94 44 -100 40 -8 -5 -7 -8
3 -11 8 -3 22 -15 31 -26 16 -20 16 -21 0 -27 -15 -6 -58 -118 -64 -169 -2 -8
-26 -60 -54 -116 l-52 -101 -99 -46 c-55 -26 -106 -47 -113 -47 -9 -1 -7 -6 6
-16 19 -15 19 -16 -12 -9 -17 3 -49 1 -71 -4 -56 -16 -201 8 -271 43 -62 32
-146 107 -198 178 -38 52 -64 61 -80 26 -10 -22 -11 -20 -22 19 -8 28 -9 60
-3 97 9 57 7 66 -13 66 -13 0 -35 -56 -35 -89 0 -12 14 -57 31 -101 28 -73 50
-104 104 -145 19 -14 19 -15 1 -8 -54 19 80 -117 151 -152 21 -11 46 -26 55
-34 10 -7 52 -18 95 -23 43 -5 97 -12 120 -15 28 -3 53 1 74 11 35 18 52 21
29 6 -11 -7 -6 -10 20 -10 123 0 322 111 359 200 6 14 15 32 19 40 38 67 61
124 72 178 7 34 16 62 21 62 4 0 11 20 14 45 4 24 13 52 20 61 11 16 14 16 46
-3 29 -16 34 -24 31 -50 -2 -24 3 -36 24 -52 15 -11 31 -21 36 -21 6 0 23 -11
40 -25 16 -14 40 -25 53 -25 12 0 72 -10 131 -21 78 -15 129 -20 179 -16 99 8
239 44 309 79 59 30 189 144 254 223 18 22 42 51 53 64 75 89 109 275 91 496
-10 117 -47 235 -91 292 -12 15 -32 44 -44 63 -30 47 -166 163 -250 213 -96
56 -100 78 -17 91 115 18 351 256 410 412 11 30 32 78 47 107 26 48 28 60 28
167 -1 79 -6 133 -18 172 -21 69 -70 179 -88 199 -8 8 -23 31 -33 52 -21 40
-88 102 -196 182 -86 62 -152 95 -193 95 -18 0 -37 4 -42 9 -20 20 -215 36
-285 24z m254 -1455 c18 -26 13 -38 -18 -38 -28 0 -50 24 -42 45 8 22 43 18
60 -7z m164 -118 c34 -21 40 -30 20 -30 -16 0 -77 49 -63 50 6 0 25 -9 43 -20z
m-974 -1279 c-4 -43 -10 -68 -17 -64 -10 6 -4 113 8 133 14 22 16 1 9 -69z
m267 13 c12 -14 11 -16 -5 -13 -11 2 -21 10 -24 17 -5 17 13 15 29 -4z m-1227
-165 c43 -37 71 -83 79 -126 4 -18 5 -33 2 -33 -9 0 -135 165 -135 177 0 21
17 15 54 -18z m852 -117 c-8 -16 -22 -35 -32 -43 -10 -8 -5 4 11 29 32 48 42
55 21 14z m-676 -102 c8 -5 11 -10 5 -10 -5 0 -17 5 -25 10 -8 5 -10 10 -5 10
6 0 17 -5 25 -10z"/>
		<path d="M4769 4641 c-13 -10 -39 -22 -58 -26 -38 -8 -101 -69 -101 -98 0 -23
29 -16 131 29 42 19 84 34 93 34 27 0 30 29 6 56 -28 29 -40 30 -71 5z m-14
-61 c-3 -5 -15 -10 -26 -10 -10 0 -19 5 -19 10 0 6 12 10 26 10 14 0 23 -4 19
-10z"/>
		<path d="M1308 4563 c-8 -10 -9 -19 -1 -31 14 -23 61 -28 69 -8 13 34 -45 67
-68 39z"/>
		<path d="M1202 4514 c-60 -51 -72 -81 -75 -177 -2 -77 -1 -82 19 -85 20 -3 23
3 29 57 8 66 50 165 84 195 11 11 21 25 21 33 0 24 -36 14 -78 -23z"/>
		<path d="M995 4001 c-19 -37 -48 -47 -77 -27 -40 28 -88 20 -168 -30 -96 -58
-109 -71 -169 -163 -49 -75 -103 -212 -117 -298 -10 -65 12 -171 46 -220 17
-23 30 -54 30 -70 0 -22 2 -25 10 -13 5 8 10 43 10 76 0 34 6 77 14 96 8 18
26 76 41 127 56 201 150 331 300 416 28 16 59 36 70 45 11 10 38 21 59 25 44
7 116 36 116 46 0 8 -64 19 -112 19 -31 0 -40 -5 -53 -29z m-125 -85 c0 -2
-15 -9 -32 -15 -30 -10 -31 -9 -14 4 18 14 46 20 46 11z m-315 -488 c-13 -113
-36 -110 -49 5 l-6 57 31 0 31 0 -7 -62z"/>
	</g>
</svg>
